<?xml version="1.0" encoding="utf-8"?>
<!-- Generator: Adobe Illustrator 22.1.0, SVG Export Plug-In . SVG Version: 6.00 Build 0)  -->
<svg version="1.1" id="Layer_1" xmlns="http://www.w3.org/2000/svg" xmlns:xlink="http://www.w3.org/1999/xlink" x="0px" y="0px"
	 viewBox="0 0 376.9 70" style="enable-background:new 0 0 376.9 70;" xml:space="preserve">
<style type="text/css">
	.st0{fill:#DE6C27;}
</style>
<g>
	<path class="st0" d="M53.9,16.6H17.2c-3,0-5.3,2.4-5.3,5.3v42.7c0,3-2.4,5.3-5.3,5.3H5.3c-3,0-5.3-2.4-5.3-5.3v-54
		c0-0.8,0.2-1.6,0.5-2.3C0.8,7.6,1.2,7,1.7,6.5c0.5-0.5,1.2-1,1.9-1.3C4.3,4.9,5.1,4.7,6,4.7h48c3,0,5.3,2.4,5.3,5.3v1.1
		C59.3,14.2,56.9,16.6,53.9,16.6z M48.6,43.3H21.9c-3,0-5.3-2.4-5.3-5.3v-1.2c0-3,2.4-5.3,5.3-5.3h26.7c3,0,5.3,2.4,5.3,5.3V38
		C54,40.9,51.6,43.3,48.6,43.3z"/>
	<path class="st0" d="M85.4,10.7h-1.1c-3,0-5.3-2.4-5.3-5.3v0c0-3,2.4-5.3,5.3-5.3h1.1c3,0,5.3,2.4,5.3,5.3v0
		C90.7,8.3,88.3,10.7,85.4,10.7z M85.4,70h-1.1c-3,0-5.3-2.4-5.3-5.3V26.1c0-3,2.4-5.3,5.3-5.3h1.1c3,0,5.3,2.4,5.3,5.3v38.5
		C90.7,67.6,88.3,70,85.4,70z"/>
	<path class="st0" d="M162.4,70h-1.1c-3,0-5.3-2.4-5.3-5.3v-22c0-1.5-0.3-2.9-0.8-4.2c-0.5-1.2-1.3-2.3-2.2-3.2
		c-0.9-0.9-2-1.6-3.2-2c-1.2-0.5-2.6-0.7-4-0.7h-15.4c-3,0-5.3,2.4-5.3,5.3v26.7c0,3-2.4,5.3-5.3,5.3h-1.1c-3,0-5.3-2.4-5.3-5.3v-38
		c0-0.8,0.2-1.6,0.5-2.3c0.3-0.7,0.7-1.3,1.3-1.9c0.5-0.5,1.2-0.9,1.9-1.3s1.5-0.5,2.3-0.5h26.7c1.5,0,3.1,0.2,4.7,0.5
		c1.7,0.3,3.3,0.9,4.9,1.6c1.6,0.7,3.2,1.7,4.6,2.8c1.5,1.1,2.8,2.5,3.9,4.1c1.1,1.6,2,3.5,2.7,5.6c0.7,2.1,1,4.5,1,7.2v22
		C167.7,67.6,165.3,70,162.4,70z"/>
	<path class="st0" d="M237,64.7c0,3-2.4,5.3-5.3,5.3h-26.7c-1.6,0-3.4-0.3-5.4-0.9c-1.9-0.6-3.7-1.5-5.4-2.8c-1.7-1.3-3-3-4.1-5.1
		c-1.1-2.1-1.7-4.7-1.7-7.8v-16c0-1.1,0.1-2.3,0.4-3.6c0.3-1.2,0.7-2.5,1.2-3.7c0.5-1.2,1.3-2.4,2.1-3.5c0.9-1.1,1.9-2.1,3.1-3
		c1.2-0.8,2.6-1.5,4.3-2c1.6-0.5,3.4-0.8,5.5-0.8h26.7c3,0,5.3,2.4,5.3,5.3v1.1c0,3-2.4,5.3-5.3,5.3h-26.7c-1.5,0-2.7,0.4-3.5,1.2
		c-0.8,0.8-1.2,2-1.2,3.6v15.9c0,1.5,0.4,2.7,1.2,3.5c0.8,0.8,2,1.2,3.6,1.2h26.6c3,0,5.3,2.4,5.3,5.3V64.7z"/>
	<path class="st0" d="M308.4,53.7c0,1.6-0.3,3.4-0.9,5.3c-0.6,1.9-1.5,3.7-2.8,5.3c-1.3,1.6-3,3-5.1,4.1c-2.1,1.1-4.6,1.6-7.6,1.6
		h-21.3c-1.6,0-3.4-0.3-5.3-0.9c-1.9-0.6-3.7-1.5-5.3-2.8c-1.6-1.3-3-3-4.1-5.1c-1.1-2.1-1.6-4.6-1.6-7.6c0-1.6,0.3-3.4,0.9-5.3
		c0.6-1.9,1.5-3.7,2.8-5.3c1.3-1.6,3-3,5.1-4.1s4.6-1.6,7.6-1.6h16c3,0,5.3,2.4,5.3,5.3v0.6c0,3-2.4,5.3-5.3,5.3h-16
		c-1.6,0-2.9,0.5-3.7,1.5s-1.3,2.2-1.3,3.7c0,1.5,0.5,2.8,1.5,3.6c1,0.9,2.2,1.3,3.6,1.3h21.3c1.6,0,2.9-0.5,3.7-1.5
		c0.9-1,1.3-2.2,1.3-3.6V37.1c0-1.5-0.5-2.8-1.4-3.7c-1-0.9-2.2-1.4-3.6-1.4h-20.6c-3,0-5.3-2.4-5.3-5.3v-0.5c0-3,2.4-5.3,5.3-5.3
		h20.6c1.6,0,3.4,0.3,5.3,0.9c1.9,0.6,3.7,1.5,5.3,2.8c1.6,1.3,3,3,4.1,5.1c1.1,2.1,1.6,4.6,1.6,7.6V53.7z"/>
	<path class="st0" d="M372.8,27.3c0,3-2.4,5.3-5.3,5.3h-21.3c-1.6,0-2.8,0.4-3.6,1.2s-1.2,2-1.2,3.5v27.3c0,3-2.4,5.3-5.3,5.3h-1.1
		c-3,0-5.3-2.4-5.3-5.3V37.4c0-2,0.3-3.9,0.8-5.5c0.5-1.6,1.2-3,2.1-4.3c0.9-1.2,1.9-2.3,3-3.1c1.1-0.9,2.3-1.6,3.5-2.1
		c1.2-0.5,2.5-0.9,3.7-1.2c1.3-0.3,2.4-0.4,3.5-0.4h21.4c3,0,5.3,2.4,5.3,5.3V27.3z"/>
</g>
</svg>
