<?xml version="1.0" encoding="utf-8"?>
<!-- Generator: Adobe Illustrator 22.1.0, SVG Export Plug-In . SVG Version: 6.00 Build 0)  -->
<svg version="1.1" id="Layer_1" xmlns="http://www.w3.org/2000/svg" xmlns:xlink="http://www.w3.org/1999/xlink" x="0px" y="0px"
	 viewBox="0 0 250 250" style="enable-background:new 0 0 250 250;" xml:space="preserve">
<style type="text/css">
	.st0{fill:#FFFFFF;}
</style>
<g>
	<path class="st0" d="M126.5,33.1c-50.4,0-91.3,40.9-91.3,91.3c0,17,4.7,33,12.8,46.6l-11.5,46.4l45.8-13.2
		c13.1,7.3,28.2,11.4,44.3,11.4c50.4,0,91.3-40.9,91.3-91.3C217.8,74,177,33.1,126.5,33.1z M127.6,200.6c-15.9,0-30.7-4.9-42.9-13.4
		l-26.1,7.5l6.7-26.8c-8.5-12.2-13.5-27.1-13.5-43.1c0-41.9,33.9-75.8,75.8-75.8s75.8,33.9,75.8,75.8
		C203.4,166.6,169.4,200.6,127.6,200.6z"/>
	<path class="st0" d="M103.5,117.2c1.1-1.2,2.1-2.4,3.2-3.7c1.8-2.1,4.4-4.1,4.6-7c0.1-2.9-0.9-5.7-1.9-8.3c-0.6-1.7-1.3-3.3-2-5
		c-1.2-3-2.6-7.3-4.3-9.1c-2.3-2.4-6.2-2.9-9.2-1.4c0,0-17.9,8.6-12.4,25.8c0,0,10.7,48.6,64.4,58.6c0,0,19.3,2.8,24.5-9
		c1.1-2.5,1.9-6.1,1.7-8.8s-2.1-4.4-4.3-5.7c-2.8-1.6-5.4-3.1-8.6-4.7c-2.8-1.4-6-3.4-9.2-2.5c-2.4,0.7-4.1,2.8-5.7,4.5
		c-2.1,2.2-4.2,4.4-6.3,6.6C137.9,147.5,110.7,137.5,103.5,117.2z"/>
</g>
</svg>
